<?xml version="1.0" encoding="utf-8"?>
<!-- Generator: Adobe Illustrator 21.0.2, SVG Export Plug-In . SVG Version: 6.00 Build 0)  -->
<svg version="1.1" id="Layer_1" xmlns="http://www.w3.org/2000/svg" xmlns:xlink="http://www.w3.org/1999/xlink" x="0px" y="0px"
	 viewBox="0 0 346.1 71.7" style="enable-background:new 0 0 346.1 71.7;" xml:space="preserve">
<g>
	<g>
		<path fill="#FFFFFF" d="M119.6,39.3H99.2v16.4h-8.1V15.2h29.8v7.4H99.2v9.3h20.4V39.3z"/>
		<path fill="#FFFFFF" d="M154.2,55.8h-7.4v-3.1c-1.9,2.3-4.6,3.8-8.4,3.8c-7.7,0-13.5-6.4-13.5-14.8s5.8-14.8,13.5-14.8
			c3.8,0,6.5,1.6,8.4,3.8v-3.1h7.4V55.8z M132.5,41.7c0,4.3,2.8,7.7,7.3,7.7c4.3,0,7.3-3.3,7.3-7.7s-3-7.7-7.3-7.7
			C135.4,34,132.5,37.4,132.5,41.7z"/>
		<path fill="#FFFFFF" d="M186.2,32.1l-5.4,4.6c-1.7-1.9-3.6-2.8-6-2.8c-3.8,0-7,3.1-7,7.7c0,4.7,3.1,7.7,7,7.7c2.4,0,4.6-1.1,6.1-2.8
			l5.4,4.6c-2.7,3.4-6.5,5.3-11.2,5.3c-9,0-14.9-6.3-14.9-14.8s6-14.8,14.9-14.8C179.7,26.9,183.6,28.9,186.2,32.1z"/>
		<path fill="#FFFFFF" d="M219,41.7c0,0.9,0,1.9-0.1,2.6h-19.9c0.9,4.1,3.7,5.8,7.3,5.8c2.4,0,5.1-1,7.1-2.7l4.4,4.8
			c-3.1,3-7.3,4.3-12,4.3c-8.5,0-14.5-5.8-14.5-14.7S197,27,205.4,27C213.4,26.9,219,32.9,219,41.7z M199,39.1h12.4
			c-0.7-3.6-2.8-5.6-6.1-5.6C201.7,33.4,199.6,35.6,199,39.1z"/>
		<path fill="#FFFFFF" d="M238.6,39.1h-3.7v16.7h-8.1V15.2h8.1v16.4h3.8l13.4-16.4h10.1L245.3,35l18.2,20.8H253L238.6,39.1z"/>
		<path fill="#FFFFFF" d="M296.1,41.7c0,8.4-6.4,14.8-15.2,14.8c-8.7,0-15.1-6.3-15.1-14.8s6.4-14.8,15.1-14.8
			C289.7,26.9,296.1,33.3,296.1,41.7z M273.5,41.7c0,4.6,3.1,7.7,7.4,7.7s7.5-3.1,7.5-7.7s-3.3-7.7-7.5-7.7S273.5,37.1,273.5,41.7z"
			/>
		<path fill="#FFFFFF" d="M346.1,37.8v17.9h-7.5V40.3c0-4.1-2-6.3-5.4-6.3c-3.3,0-6,2.1-6,6.4v15.4h-7.5V40.3c0-4.1-2-6.3-5.4-6.3
			c-3.3,0-6,2.1-6,6.4v15.4h-7.5v-28h7.4V31c2-3,5.1-4,8.3-4c4,0,7.4,1.9,9.3,4.8c2.1-3.6,5.8-4.8,9.5-4.8
			C341.7,26.9,346.1,31.3,346.1,37.8z"/>
	</g>
	<g>
		<g>
			<path fill="#FFFFFF" d="M33.1,22.4c-0.4,0.1-0.9,0.2-1.3,0.3C32.2,22.6,32.6,22.5,33.1,22.4z"/>
			<path fill="#FFFFFF" d="M35.1,22.1c-0.5,0-0.9,0.1-1.4,0.1C34.2,22.2,34.7,22.2,35.1,22.1z"/>
			<path fill="#FFFFFF" d="M35.8,71.7c-10.2,0-19.4-4.3-25.9-11.1c-0.4-0.4-0.8-0.8-1.2-1.3c-0.3-0.3-0.6-0.7-0.9-1
				c-3-3.7-5.3-8.1-6.6-12.8c0-0.5-0.1-0.9-0.2-1.4c-0.3-1.3-0.5-2.5-0.7-3.8c-0.1-0.5-0.1-1.1-0.2-1.6C0,37.7,0,36.8,0,35.8l0,0
				c0-6.1,5-11.1,11.1-11.1c3.1,0,5.8,1.2,7.8,3.2s3.2,4.8,3.2,7.8c0,7.6,6.1,13.7,13.7,13.7c-3.1,0-5.8,1.2-7.8,3.2
				s-3.2,4.8-3.2,7.8C24.8,66.7,29.7,71.7,35.8,71.7z"/>
			<path fill="#FFFFFF" d="M47.6,42.9c-0.2,0.4-0.5,0.7-0.7,1.1C47.1,43.7,47.3,43.3,47.6,42.9z"/>
			<path fill="#FFFFFF" d="M71.7,35.8c0,19.8-16,35.8-35.8,35.8l0,0c-6.1,0-11.1-5-11.1-11.1c0-3.1,1.2-5.8,3.2-7.8s4.8-3.2,7.8-3.2
				l0,0c3.8,0,7.2-1.5,9.7-4c0.3-0.3,0.6-0.6,0.9-1c0.1-0.2,0.3-0.3,0.4-0.5c0.3-0.3,0.5-0.7,0.7-1.1c1.3-2.1,2-4.5,2-7.1
				c0,3.1,1.2,5.8,3.2,7.8s4.8,3.2,7.8,3.2C66.7,46.9,71.7,41.9,71.7,35.8z"/>
			<path fill="#FFFFFF" d="M46.9,11.1c0,3.1-1.2,5.8-3.2,7.8s-4.8,3.2-7.8,3.2l0,0c-0.2,0-0.5,0-0.7,0c-0.5,0-0.9,0.1-1.4,0.1
				c-0.2,0-0.5,0.1-0.7,0.1c-0.4,0.1-0.9,0.2-1.3,0.3c-1.3,0.4-2.5,1-3.6,1.7c-0.5,0.4-1.1,0.8-1.6,1.2c-0.2,0.1-0.3,0.3-0.5,0.5
				c-0.2,0.2-0.3,0.3-0.5,0.5c-0.4,0.5-0.8,1-1.2,1.6c-0.7,1.1-1.3,2.3-1.7,3.6c-0.1,0.4-0.2,0.9-0.3,1.3c0,0.2-0.1,0.4-0.1,0.7
				c-0.1,0.5-0.1,0.9-0.1,1.4c0,0.2,0,0.5,0,0.7c0-3.1-1.2-5.8-3.2-7.8s-4.8-3.2-7.8-3.2C5,24.8,0,29.7,0,35.8C0,28.9,2,22.5,5.4,17
				c0.5-0.8,1-1.5,1.5-2.3c0.4-0.6,0.8-1.1,1.3-1.6c0.4-0.4,0.7-0.9,1.1-1.3c0.4-0.4,0.8-0.8,1.2-1.2c1-1,2.1-2,3.2-2.9
				c0.4-0.3,0.7-0.6,1.1-0.8c0.8-0.6,1.6-1.1,2.5-1.6C18,4.9,18.8,4.4,19.6,4c2-1.1,4.2-2,6.4-2.6c0.6-0.2,1.1-0.3,1.7-0.4
				c1.2-0.3,2.3-0.5,3.5-0.6c0.6-0.1,1.2-0.1,1.8-0.2C34,0,34.9,0,35.8,0l0,0C42,0,46.9,5,46.9,11.1z"/>
			<path fill="#FFFFFF" d="M71.7,35.8c0,6.1-5,11.1-11.1,11.1c-3.1,0-5.8-1.2-7.8-3.2s-3.2-4.8-3.2-7.8c0-0.7-0.1-1.4-0.2-2.1
				c-0.1-0.5-0.2-0.9-0.3-1.3c-0.3-1.3-0.9-2.5-1.5-3.7c-0.2-0.4-0.5-0.7-0.7-1.1c-0.1-0.2-0.3-0.3-0.4-0.5c-0.3-0.3-0.6-0.7-0.9-1
				l0,0c-0.2-0.2-0.3-0.3-0.5-0.5c-0.1-0.1-0.2-0.2-0.4-0.3c-0.2-0.2-0.4-0.3-0.6-0.5c-0.2-0.1-0.4-0.3-0.6-0.4
				c-1.1-0.7-2.3-1.3-3.6-1.7c-0.4-0.1-0.9-0.3-1.3-0.3c-0.2,0-0.5-0.1-0.7-0.1c-0.4-0.1-0.9-0.1-1.4-0.1c-0.2,0-0.5,0-0.7,0
				c3.1,0,5.8-1.2,7.8-3.2s3.2-4.8,3.2-7.8C46.9,5,42,0,35.8,0C55.6,0,71.7,16,71.7,35.8z"/>
			<path fill="#FFFFFF" d="M38.6,22.4c0.4,0.1,0.9,0.2,1.3,0.3C39.5,22.6,39,22.5,38.6,22.4z"/>
			<path fill="#FFFFFF" d="M45.5,26.1c0.3,0.3,0.6,0.6,0.9,1C46.1,26.8,45.8,26.5,45.5,26.1L45.5,26.1z"/>
			<path fill="#FFFFFF" d="M47.6,28.7c-0.2-0.4-0.5-0.7-0.7-1.1C47.1,28,47.3,28.3,47.6,28.7z"/>
		</g>
		<path fill="#000000" d="M57.9,21.1v24.1c0,2.7-2.2,5-4.9,5l-17.1,0.1L24.8,60.6l1-10.4h-7.1c-2.7,0-4.9-2.2-4.9-5V21.1
			c0-2.7,2.2-5,4.9-5H53C55.7,16.1,57.9,18.3,57.9,21.1L57.9,21.1z"/>
	</g>
</g>
</svg>
